<svg xmlns="http://www.w3.org/2000/svg" viewBox="0 0 128 128">
<g fill="none" stroke="#E5A11A" stroke-width="6" stroke-linecap="round" stroke-linejoin="round">
  <path d="M34 80
           Q18 72 20 55
           Q20 42 30 34
           L38 18
           L52 34
           Q64 30 76 34
           L90 18
           L98 34
           Q110 42 108 58
           Q106 76 92 82" />
  <path d="M28 82 Q40 96 60 92 L92 92 Q108 92 110 82" />
  <path d="M92 54 Q112 56 114 74 Q114 88 102 92" />
  <path d="M100 52 Q116 40 120 54 Q122 64 112 70" />
  <path d="M48 92 Q44 82 54 80" />
  <path d="M70 92 Q74 82 84 82" />
  <path d="M56 40 L56 48" />
  <path d="M64 40 L64 48" />
  <path d="M72 40 L72 48" />
</g>
<circle cx="52" cy="62" r="3.5" fill="#E5A11A"/>
<circle cx="74" cy="62" r="3.5" fill="#E5A11A"/>
<path d="M63 67 Q64 70 68 67" fill="none" stroke="#E5A11A" stroke-width="4" stroke-linecap="round"/>
<circle cx="42" cy="68" r="5" fill="#F6B8B8"/>
<circle cx="84" cy="68" r="5" fill="#F6B8B8"/>
</svg>